<?xml version="1.0" standalone="no"?>
<!DOCTYPE svg PUBLIC "-//W3C//DTD SVG 20010904//EN"
 "http://www.w3.org/TR/2001/REC-SVG-20010904/DTD/svg10.dtd">
<svg version="1.0" xmlns="http://www.w3.org/2000/svg"
 width="116.000000pt" height="116.000000pt" viewBox="0 0 116.000000 116.000000"
 preserveAspectRatio="xMidYMid meet">
<metadata>
Created by potrace 1.14, written by Peter Selinger 2001-2017
</metadata>
<g transform="translate(0.000000,116.000000) scale(0.100000,-0.100000)"
fill="#000000" stroke="none">
<path d="M355 957 c-102 -97 -181 -180 -183 -192 -2 -16 30 -51 133 -145 75
-69 140 -126 144 -128 3 -1 40 121 80 270 41 150 76 280 78 289 3 10 -10 28
-34 46 l-38 31 -180 -171z m91 -49 c4 -6 -2 -19 -14 -29 -16 -12 -22 -28 -22
-58 0 -31 -5 -43 -21 -52 l-21 -11 21 -14 c15 -11 21 -26 21 -54 0 -29 6 -43
20 -52 43 -27 17 -55 -35 -38 -33 11 -35 14 -35 56 0 35 -6 50 -25 68 -25 23
-34 56 -16 56 23 0 41 34 41 75 0 31 5 47 18 54 23 14 59 14 68 -1z"/>
<path d="M631 998 c-5 -18 -37 -136 -71 -263 -34 -126 -65 -242 -70 -257 l-9
-28 59 0 58 0 167 158 167 157 -118 113 c-66 62 -131 122 -146 132 l-26 20
-11 -32z m77 -94 c17 -12 22 -25 22 -59 0 -36 5 -48 25 -61 14 -9 25 -22 25
-29 0 -7 -11 -20 -25 -29 -20 -13 -25 -25 -25 -59 0 -50 -13 -67 -51 -67 -36
0 -45 16 -19 32 15 10 20 23 20 55 0 36 4 45 28 57 25 14 26 15 7 22 -28 11
-35 23 -35 66 0 27 -6 40 -21 48 -16 9 -18 14 -8 26 15 18 29 18 57 -2z"/>
<path d="M5 801 c-3 -5 -1 -12 5 -16 5 -3 10 1 10 9 0 18 -6 21 -15 7z"/>
<path d="M260 380 c-18 -5 -40 -16 -46 -25 -28 -38 -30 -216 -4 -265 16 -29
73 -40 213 -40 l127 0 0 30 0 30 -133 0 c-144 0 -157 4 -157 52 l0 27 143 3
142 3 0 25 0 25 -142 3 -143 3 0 27 c0 48 13 52 157 52 l133 0 0 30 0 30 -127
-1 c-71 -1 -144 -5 -163 -9z"/>
<path d="M620 220 l0 -170 35 0 34 0 3 65 3 65 80 -70 c74 -65 83 -70 125 -70
l45 0 -45 43 c-25 23 -69 63 -98 89 l-52 46 90 77 c49 43 90 79 90 81 0 2 -19
4 -43 4 -38 0 -50 -7 -117 -66 l-75 -66 -3 71 -3 71 -34 0 -35 0 0 -170z"/>
</g>
</svg>
